<?xml version="1.0" encoding="UTF-8" standalone="no"?>
<!-- Uploaded to: SVG Repo, www.svgrepo.com, Generator: SVG Repo Mixer Tools -->

<svg
   width="800px"
   height="800px"
   viewBox="0 0 24 24"
   fill="none"
   version="1.1"
   id="svg3"
   sodipodi:docname="settle_icon.svg"
   xml:space="preserve"
   inkscape:version="1.4.2 (f4327f4, 2025-05-13)"
   xmlns:inkscape="http://www.inkscape.org/namespaces/inkscape"
   xmlns:sodipodi="http://sodipodi.sourceforge.net/DTD/sodipodi-0.dtd"
   xmlns="http://www.w3.org/2000/svg"
   xmlns:svg="http://www.w3.org/2000/svg"><defs
     id="defs3"><linearGradient
       id="swatch5"
       inkscape:swatch="solid"><stop
         style="stop-color:#000000;stop-opacity:1;"
         offset="0"
         id="stop5" /></linearGradient><linearGradient
       id="swatch3"
       inkscape:swatch="solid"><stop
         style="stop-color:#000000;stop-opacity:1;"
         offset="0"
         id="stop3" /></linearGradient></defs><sodipodi:namedview
     id="namedview3"
     pagecolor="#ffffff"
     bordercolor="#111111"
     borderopacity="1"
     inkscape:showpageshadow="0"
     inkscape:pageopacity="0"
     inkscape:pagecheckerboard="1"
     inkscape:deskcolor="#d1d1d1"
     inkscape:zoom="0.92896153"
     inkscape:cx="186.76769"
     inkscape:cy="378.3795"
     inkscape:window-width="2240"
     inkscape:window-height="1311"
     inkscape:window-x="2391"
     inkscape:window-y="-9"
     inkscape:window-maximized="1"
     inkscape:current-layer="svg3" /><path
     d="M 11.967705,1.8510224 H 7.8951974 c -2.1382707,0 -3.2074062,0 -4.0241096,0.416134 C 3.1526845,2.6331986 2.5686104,3.2172727 2.2025682,3.935676 1.7864342,4.7523794 1.7864342,5.8215149 1.7864342,7.9597856 v 8.1450184 c 0,2.138321 0,3.207355 0.416134,4.024147 0.3660422,0.718416 0.9501163,1.302439 1.6685196,1.668456 0.8167034,0.41616 1.8858389,0.41616 4.0241096,0.41616 h 8.1450176 c 2.138321,0 3.207354,0 4.024147,-0.41616 0.718416,-0.366017 1.302439,-0.95004 1.668456,-1.668456 0.41616,-0.816792 0.41616,-1.885826 0.41616,-4.024147 v -5.345168"
     stroke="#000000"
     stroke-width="2.54532"
     stroke-linecap="round"
     stroke-linejoin="round"
     id="path1"
     style="stroke-width:2.25;stroke-dasharray:none" /><path
     d="m 16.111007,3.4769045 2.221045,2.3815938 3.88683,-4.167789"
     stroke="#000000"
     stroke-width="2.57439"
     stroke-linecap="round"
     stroke-linejoin="round"
     id="path3"
     style="fill-opacity:1;stroke:#000000;stroke-width:2.01011;stroke-dasharray:none;stroke-dashoffset:0;stroke-opacity:1" /><g
     style="fill:#000000;stroke-width:2.34877;stroke-dasharray:none"
     id="g3"
     transform="matrix(0.89408639,0,0,0.89408639,7.9757172,3.5178024)"><path
       d="M 8.699,11.907 A 3.005,3.005 0 0 1 7.196,14.485 4.903,4.903 0 0 1 5.545,15.148 V 16.3 a 1.03,1.03 0 1 1 -2.059,0 V 15.159 L 3.423,15.148 a 5.199,5.199 0 0 1 -1.064,-0.325 3.414,3.414 0 0 1 -1.311,-0.962 1.029022,1.029022 0 1 1 1.556,-1.347 1.39,1.39 0 0 0 0.52,0.397 l 0.002,0.001 a 3.367,3.367 0 0 0 0.648,0.208 h 0.002 a 4.964,4.964 0 0 0 0.695,0.084 3.132,3.132 0 0 0 1.605,-0.445 C 6.576,12.434 6.64,12.134 6.64,11.908 A 1.005,1.005 0 0 0 6.395,11.258 2.06,2.06 0 0 0 5.845,10.818 2.705,2.705 0 0 0 5.181,10.578 3.107,3.107 0 0 0 4.531,10.512 6.046,6.046 0 0 1 3.523,10.432 4.578,4.578 0 0 1 2.236,10.017 3.708,3.708 0 0 1 1.02,9.04 3.115,3.115 0 0 1 0.302,7.086 2.965,2.965 0 0 1 0.623,5.753 3.407,3.407 0 0 1 1.876,4.418 4.872,4.872 0 0 1 3.487,3.787 V 2.674 a 1.03,1.03 0 1 1 2.059,0 V 3.818 L 5.609,3.832 H 5.611 A 5.464,5.464 0 0 1 6.686,4.2 3.963,3.963 0 0 1 7.843,4.995 1.03,1.03 0 0 1 6.39,6.453 1.901,1.901 0 0 0 5.841,6.077 3.516,3.516 0 0 0 5.172,5.843 L 5.106,5.829 A 3.183,3.183 0 0 0 4.548,5.736 3.062,3.062 0 0 0 2.976,6.158 1.102,1.102 0 0 0 2.361,7.086 1.086,1.086 0 0 0 2.617,7.74 l 0.002,0.003 a 1.679,1.679 0 0 0 0.537,0.43 L 3.158,8.175 A 2.57,2.57 0 0 0 3.861,8.4 H 3.863 A 4.012,4.012 0 0 0 4.531,8.453 5.165,5.165 0 0 1 5.618,8.565 L 5.621,8.566 A 4.804,4.804 0 0 1 6.803,8.994 L 6.807,8.996 A 4.115,4.115 0 0 1 7.945,9.902 L 7.947,9.904 A 3.05,3.05 0 0 1 8.7,11.907 Z"
       id="path1-0"
       style="stroke-width:2.34877;stroke-dasharray:none" /></g></svg>
